# xmcd
#
# Track frame offsets:
#	150
#	16910
#	33227
#	47052
#	65380
#	81872
#	100690
#	111927
#	126897
#	138825
#	155980
#	171347
#	191427
#	207257
#	219610
#	236485
#	252457
#	265345
#
# Disc length: 3792 seconds
#
# Revision: 1
# Processed by: cddbd v1.5.2PL0 Copyright (c) Steve Scherf et al.
# Submitted via: EZCDAudioConverter 8.0.2.1
#
DISCID=020ece12
DTITLE=Gang Marcela - The Best (Gwiazdozbiór)
DYEAR=2002
DGENRE=Country
TTITLE0=Zaświeciła moja gwiazda
TTITLE1=Znajdziemy pośród trosk
TTITLE2=Bym drogi nie pomylił
TTITLE3=Miłość nie liczy lat
TTITLE4=Dziewczyno obudź się
TTITLE5=Kto, jeśli nie ty
TTITLE6=Ojciec żył tak jak chciał
TTITLE7=Sen jak dym
TTITLE8=Lubię mieć luz
TTITLE9=A mnie cieszy to co mam
TTITLE10=Ona w sobie coś ma
TTITLE11=Gdybyś tak dziś
TTITLE12=Kołysanka dla małego
TTITLE13=Hej przyjacielu- dobre słowo
TTITLE14=Komu z nas tęczowy łuk
TTITLE15=Mężczyzna i łzy
TTITLE16=Tyle złamanych serc
TTITLE17=Krąg znów będzie nieprzerwany
EXTD=
EXTT0=
EXTT1=
EXTT2=
EXTT3=
EXTT4=
EXTT5=
EXTT6=
EXTT7=
EXTT8=
EXTT9=
EXTT10=
EXTT11=
EXTT12=
EXTT13=
EXTT14=
EXTT15=
EXTT16=
EXTT17=
PLAYORDER=
